<?xml version="1.0" encoding="utf-8"?>
<!-- Generator: Adobe Illustrator 19.2.1, SVG Export Plug-In . SVG Version: 6.00 Build 0)  -->
<svg version="1.1" id="layer" xmlns="http://www.w3.org/2000/svg" xmlns:xlink="http://www.w3.org/1999/xlink" x="0px" y="0px"
	 viewBox="0 0 652 652" style="enable-background:new 0 0 652 652;" xml:space="preserve">
<style type="text/css">
	.st0{fill:#C6F300;}
</style>
<path class="st0" d="M609.6,306.7c-4.8,0-8.8,3.9-8.8,8.8c0,4.9,3.9,8.8,8.8,8.8c4.8,0,8.8-3.9,8.8-8.8
	C618.5,310.6,614.5,306.7,609.6,306.7z"/>
<path d="M595.5,327l-14.6,7.9c0.1,0.7,0.1,1.4,0.1,2.1c0,7.8-6.3,14.1-14.1,14c-7.8,0-14.1-6.3-14-14.1c0-7.8,6.3-14.1,14.1-14
	c4.1,0,7.8,1.8,10.3,4.6l13.6-7.3L573,292.8c-0.1,0-0.3,0-0.4,0c-4.2,0-7.6-3.4-7.6-7.6c0-4.2,3.4-7.6,7.6-7.6
	c4.2,0,7.6,3.4,7.6,7.6c0,1.4-0.4,2.7-1.1,3.9l10.6,15.9c5.6-4.8,9.2-11.9,9.2-19.9c0-14.4-11.7-26.2-26.2-26.3
	c-14.4,0-26.2,11.7-26.3,26.2c0,7.6,3.3,14.6,8.5,19.4c-13.1,4.9-22.4,17.5-22.4,32.4c0,19.1,15.5,34.7,34.6,34.7
	c10.6,0,20.1-4.8,26.5-12.2l5.1,7.7H622L595.5,327z M392.5,278.2c-2,0-3.7,0.7-5.1,2c-1.4,1.4-2,3.1-2,5.1c0,2,0.7,3.7,2,5.1
	c1.4,1.4,3.1,2,5.1,2c2,0,3.7-0.7,5.1-2c1.4-1.4,2-3.1,2-5.1c0-2-0.7-3.7-2.1-5.1C396.2,279,394.5,278.2,392.5,278.2z M177.3,304.2
	c-4.2,0-8.3,0.9-12,2.8c-3.3,1.6-5.9,4.1-7.9,7.4c-1.8-3-4.2-5.4-7.3-7.1c-3.6-2-7.8-3.1-12.5-3.1c-3.6,0-7.1,0.7-10.4,2.2
	c-2.5,1.1-4.7,2.7-6.5,4.8v-5.8h-10.1v54.6h10.1v-30.7c0-4.6,1.5-8.3,4.4-11.1c2.9-2.8,6.5-4.2,10.9-4.2c4.5,0,8.2,1.4,10.6,3.9
	c2.5,2.6,3.7,6.4,3.7,11.1v30.9h10.1v-30.7c0-4.6,1.5-8.3,4.4-11.1c2.9-2.8,6.6-4.2,10.9-4.2c4.5,0,8.2,1.4,10.6,3.9
	c2.5,2.6,3.8,6.4,3.8,11.1v30.9h10.1v-33.6c0-6.6-2.2-12-6.4-16C189.7,306.2,184.1,304.2,177.3,304.2z M243.4,304.2
	c-7.6,0-13.7,2.5-18.3,7.4v-6.3H215v77.1h10.1v-28.8c4.6,4.9,10.7,7.4,18.3,7.4c7.7,0,14.2-2.7,19.4-8.1c5.2-5.4,7.9-12.2,7.9-20.3
	c0-8.1-2.6-14.9-7.9-20.3C257.7,306.9,251.1,304.2,243.4,304.2z M260.4,332.5c0,5.3-1.7,9.8-5,13.4c-3.3,3.6-7.6,5.4-13,5.4
	c-5.2,0-9.5-1.8-12.8-5.3c-3.4-3.5-5.1-8.1-5.1-13.5s1.7-9.9,5.1-13.4c3.4-3.5,7.6-5.3,12.8-5.3c5.2,0,9.6,1.8,12.9,5.4
	C258.6,322.7,260.4,327.2,260.4,332.5z M306.6,304.2c-7.8,0-14.4,2.7-19.4,8s-7.6,12.1-7.6,20.4c0,8.3,2.6,15.2,7.7,20.4
	c5.1,5.2,11.8,7.9,19.9,7.9c8.9,0,16.4-2.9,22.3-8.5l0.6-0.6l-5.6-7.1l-0.7,0.7c-4.6,4.2-10.1,6.4-16.1,6.4c-4.8,0-8.8-1.4-12.1-4.2
	c-3.1-2.6-4.9-6.4-5.6-11.2h42.1l0.1-0.8c0.1-1,0.2-2,0.2-3.3c0-8.2-2.5-15-7.3-20.3C320.2,306.8,314.1,304.2,306.6,304.2z
	 M290.1,327.8c0.8-4.2,2.5-7.6,5.2-10.2c2.9-2.8,6.7-4.2,11.2-4.2c4.2,0,7.8,1.4,10.6,4.2c2.6,2.6,4.2,6,4.9,10.3H290.1L290.1,327.8
	z M367.8,304.2c-3.4,0-6.5,0.8-9.3,2.3c-2,1.1-3.9,2.6-5.4,4.4v-5.6H343v54.6h10.1v-30.4c0-4.7,1.2-8.5,3.7-11.3
	c2.4-2.8,5.6-4.2,9.5-4.2c3.3,0,6.3,0.7,8.7,2l1,0.6l2.4-10.1l-0.7-0.3C375.2,304.8,371.8,304.2,367.8,304.2z M387.4,305.3h10.1
	v54.6h-10.1V305.3z M448.7,347.8c-3.3,2.3-6.8,3.6-10.6,3.6c-2.9,0-5.3-0.9-7-2.7c-1.7-1.8-2.6-4.6-2.6-8.3v-25.7h20.8l-5.6-9.3
	h-15.2v-16.8h-10.1v16.8h-11.5v9.3h11.5v25.8c0,6.7,1.7,11.9,5,15.3c3.3,3.4,8,5.2,14.1,5.2s11.4-1.8,16.2-5.4l0.7-0.5l-4.8-7.8
	L448.7,347.8z M503.7,305.3l-17.4,30.4l-20.1-30.4h-11.6l26.4,39.8l-21.2,37.2h11.2l43.5-76.3l0.5-0.8H503.7z M67.1,280H54.8
	L22,359.9h11.3l8.8-21.8h37.4l8.8,21.8h11.5l-32.7-79.5L67.1,280z M75.3,327.8H46.2l14.6-35.7L75.3,327.8z"/>
</svg>
