<?xml version="1.0" encoding="utf-8"?>
<!-- Generator: Adobe Illustrator 19.2.1, SVG Export Plug-In . SVG Version: 6.00 Build 0)  -->
<svg version="1.1" id="layer" xmlns="http://www.w3.org/2000/svg" xmlns:xlink="http://www.w3.org/1999/xlink" x="0px" y="0px"
	 viewBox="0 0 652 652" style="enable-background:new 0 0 652 652;" xml:space="preserve">
<style type="text/css">
	.st0{fill:#F39500;}
	.st1{fill:#7C7976;}
	.st2{fill:#37ABDD;}
	.st3{fill:#F39400;}
	.st4{fill:#FFFFFF;}
	.st5{fill:#AFC300;}
	.st6{fill:#FBBC00;}
	.st7{fill:#A10D59;}
	.st8{fill:#E95D0F;}
	.st9{fill:#009EE0;}
	.st10{fill:#41A62B;}
	.st11{fill:#FFD300;}
	.st12{fill:#801B6B;}
	.st13{fill:#5BAC26;}
</style>
<polygon class="st0" points="252.8,501.8 262,501.8 262,542.7 280.5,518.6 291.4,518.6 272.4,543.3 294.9,570.5 282.9,570.5 
	262,544.1 262,570.5 252.8,570.5 "/>
<path class="st0" d="M300,518.6h9.3v51.9H300V518.6z M300,501.8h9.3v10.7H300V501.8z"/>
<polygon class="st0" points="321.7,527.1 314.3,527.1 314.3,518.6 321.7,518.6 321.7,501.8 331,501.8 331,518.6 338.3,518.6 
	338.3,527.1 331,527.1 331,570.5 321.7,570.5 "/>
<g>
	<path class="st0" d="M365.2,571.9c-7.6,0-13.9-2.6-19-8c-4.9-5.1-7.7-12.3-7.7-19.2c0-7.3,2.5-13.6,7.3-18.9
		c5.3-5.7,12.1-8.7,19.7-8.7c11.7,0,21,6.7,25,18.8h-10.3c-3.3-6.4-8.4-9.5-15.6-9.5c-9.1,0-16.6,7.7-16.6,18.2
		c0,10.4,7.4,18.2,17.1,18.2c6.6,0,12.1-3.6,15.1-9.9h10.3C386.2,565.3,377.5,571.9,365.2,571.9"/>
	<path class="st0" d="M396,570.5v-68.8h9.4v22.7c3-4.4,7.8-6.8,14.3-6.8c12.3,0,19.9,8.1,19.9,23v29.8h-9.4v-26.8
		c0-11.4-3.8-17-11.9-17c-4.9,0-8.8,2.3-11,6.6c-1.8,3.5-1.9,7.9-1.9,13.6v23.6H396z"/>
	<path class="st0" d="M470.8,526.1c-8.1,0-14.6,5.1-16.8,13.4h33.2C484.8,531.1,478.8,526.1,470.8,526.1 M470.7,562.6
		c6.2,0,11.5-3.1,14.5-8.5h10.5c-4.8,11.6-13.7,17.8-25,17.8c-7.6,0-14-2.7-19.1-8.1c-4.9-5.1-7.7-12.3-7.7-19.2
		c0-7.3,2.5-13.7,7.3-19c5.2-5.7,11.8-8.5,19.3-8.5c9.1,0,17.3,4.4,22.4,12.1c3.1,4.7,4.4,10.3,4.4,17.4v1.5h-43.7
		C455.2,556.8,462.2,562.6,470.7,562.6"/>
	<path class="st0" d="M503.6,570.5v-51.9h9v5.9c4-4.7,8.5-6.8,14.5-6.8c13.4,0,21.1,8.1,21.1,23.2v29.6h-9.4V543
		c0-10.9-4-16.2-12.6-16.2c-10,0-13.2,6.8-13.2,20.2v23.6H503.6z"/>
</g>
<polygon class="st1" points="101,427.7 113.8,473 125.2,427.7 131.6,427.7 143,473 155.8,427.7 164.5,427.7 146.7,486.5 139,486.5 
	128.4,442.6 117.7,486.5 110.1,486.5 92.3,427.7 "/>
<g>
	<path class="st1" d="M178.1,472.6c4.1,4.2,9.6,6.6,15.1,6.6c12.2,0,21.4-9.8,21.4-22.6c0-5.4-2-10.4-5.8-14.6
		c-4.4-4.7-9.4-7-15.6-7c-5.5,0-10.7,2.2-14.6,6.1c-4.1,4.2-6.5,10-6.5,15.6C172.2,463,174.3,468.7,178.1,472.6 M172.5,435.1
		c5.6-5.5,12.7-8.5,20.8-8.5c8.3,0,15.3,2.9,21.1,8.6c6,5.9,9,13.2,9,21.6c0,8.4-2.6,15.5-7.8,21c-6,6.5-13.6,9.9-22.4,9.9
		c-8.8,0-16.3-3.4-22.3-10.1c-5-5.5-7.6-12.7-7.6-20.9C163.3,448.6,166.4,441,172.5,435.1"/>
	<path class="st1" d="M241.5,458.2c11.7,0,17.5-3.7,17.5-11.6c0-7.9-5.1-11-15.5-11h-6.4v22.6H241.5z M228.6,486.5v-58.8h17
		c14.3,0,21.8,6.9,21.8,19c0,9.4-6.7,16.7-16.7,17.2l16.7,22.6h-10.7l-19.5-27.3v27.3H228.6z"/>
</g>
<polygon class="st1" points="272.8,486.5 272.8,427.7 281.3,427.7 281.3,478.4 300.6,478.4 300.6,486.5 "/>
<g>
	<path class="st1" d="M324.9,478.7c13.2,0,21.3-8.3,21.3-21.3c0-13.3-8.3-21.7-22.8-21.7h-8.8v42.9H324.9z M306.3,486.5v-58.8h18.9
		c17.9,0,29.5,12.2,29.5,29.6c0,10.1-4.2,18.5-11.8,24c-6.3,4.6-12.3,5.2-20.1,5.2H306.3z"/>
	<path class="st1" d="M106.5,531c-4,0-7.4-1.5-10.1-4.6c-2.3-2.5-3.5-5.8-3.5-9.5c0-3.7,1.4-7.1,4.2-9.8c2.6-2.5,5.7-3.9,9.4-3.9
		c5.5,0,9.8,2.7,11.9,7.4h-4.6c-1.7-2.4-4.2-3.6-7.4-3.6c-2.5,0-4.8,1-6.6,2.8c-1.9,1.9-2.9,4.6-2.9,7.1c0,2.8,1,5.4,2.7,7.2
		c1.8,1.9,4.4,3,6.8,3c3.1,0,5.6-1.2,7.2-3.4h4.8C116.1,528.5,111.9,531,106.5,531"/>
</g>
<polygon class="st1" points="122.4,530.5 122.4,503.8 136.2,503.8 136.2,507.4 126.2,507.4 126.2,515.3 136.2,515.3 136.2,518.8 
	126.2,518.8 126.2,526.8 136.2,526.8 136.2,530.5 "/>
<polygon class="st1" points="141,530.5 141,503.8 145,503.8 158.1,524 157.9,503.8 161.7,503.8 161.7,530.5 158,530.5 144.6,509.7 
	144.9,530.5 "/>
<polygon class="st1" points="169.4,530.5 169.4,507.4 164.4,507.4 164.4,503.8 178.2,503.8 178.2,507.4 173.2,507.4 173.2,530.5 "/>
<g>
	<path class="st1" d="M186.7,517.7c5.3,0,7.9-1.7,7.9-5.3c0-3.6-2.3-5-7-5h-2.9v10.3H186.7z M180.8,530.5v-26.7h7.7
		c6.5,0,9.9,3.1,9.9,8.6c0,4.3-3,7.6-7.6,7.8l7.6,10.3h-4.8l-8.9-12.4v12.4H180.8z"/>
</g>
<path class="st1" d="M210.9,508.8l-3.8,10.2h7.6L210.9,508.8z M202.7,530.5h-4.1l10.5-26.7h3.8l10.5,26.7H219l-2.9-7.8h-10.4
	L202.7,530.5z"/>
<polygon class="st1" points="224.7,530.5 224.7,503.8 228.6,503.8 228.6,526.8 237.3,526.8 237.3,530.5 "/>
<g>
	<path class="st2" d="M406.4,371.8c1.6,4.5,1.7,9.6-1.7,12.4c1.4-1.2-0.5,0.4-0.5,0.4c-4.3,3.8-11.9-2.1-11.9-2.1
		c-0.3-0.2-0.5-0.4-0.8-0.6c-1.9-1.7-4.8-3.8-7.2-5.5c3.5-1.8,6.9-3.9,10.2-6.1c3.3-2.2,6.5-4.6,9.5-7.2
		C404.7,366,405.6,369.4,406.4,371.8 M442.8,434.7c1.3-0.9,3-0.5,3.8,0.7l5.4,8.1c0.9,1.3,0.5,3-0.7,3.8l-6.5,4.4
		c-1.3,0.8-3,0.5-3.8-0.8l-5.4-8.1c-0.9-1.3-0.5-3,0.8-3.8L442.8,434.7z M375.2,380.6c7.4,3.7,21.4,10.6,22.8,11.4
		c2,1.2-1.2-3.6,1,0.3c2.3,3.9,1.9,8.3,8.9,19.3c7,11.1,29.7,47.1,31.6,48.8s13-4.2,13-4.2s9.6-8.1,8.8-10.5
		c-0.8-2.4-25.6-37-33.2-47.7c-7.6-10.7-12-11.9-14.8-15.4c-2.8-3.6,0.4,1.3,0-1c-0.3-1.6-1.4-17.2-2-25.4"/>
	<path class="st3" d="M266.9,71.9c-45.4,0-88.7,22.5-114.5,60.7c3.1,1.8,5.2,5.1,5.2,8.9c0,5.7-4.6,10.3-10.3,10.3
		c-1.8,0-3.6-0.5-5.1-1.3c-1.6,3.4-3.1,6.9-4.5,10.5c-18.4,48.2-8,100.3,22.7,137.4c-4.1-25.3,0.8-50.4,12.6-71.5
		c-2.2-20.9,0.3-42.7,8.3-63.7c19.1-50.2,64.3-82.8,114.3-88.3C286,72.9,276.4,71.9,266.9,71.9"/>
	<path class="st4" d="M157.5,141.5c0-3.8-2.1-7.1-5.2-8.9c-3.8,5.6-7.2,11.6-10.2,17.9c1.5,0.9,3.2,1.3,5.1,1.3
		C152.9,151.8,157.5,147.2,157.5,141.5"/>
	<path class="st5" d="M310.5,74.1c-5,0-10,0.3-15,0.8c6.9,1.5,13.8,3.5,20.5,6.1c42.1,16,71.8,50.4,83.6,90.5
		c5.6,4.2,10.8,8.9,15.6,14c-1.5-4-2.4-8.4-2.4-13c0-12.8,6.6-24.1,16.5-30.7c-15.4-25.9-39.3-47-69.6-58.6
		C343.5,77,326.9,74.1,310.5,74.1 M428.8,202.8c7.2,11.2,12.8,23.7,16.1,37.4c0.2,0.8,0.4,1.6,0.6,2.4c2.5-11.1,3.5-22.3,3.3-33.4
		C441.4,209.1,434.5,206.7,428.8,202.8"/>
	<path class="st6" d="M295.5,74.9c-50,5.5-95.2,38.1-114.3,88.3c-8,21-10.5,42.8-8.3,63.7c14.4-25.8,39.1-45.9,70.1-53.5
		c2.9-0.7,5.8-1.3,8.7-1.8c12.9-9.8,28-17.1,44.7-21.2c9.9-2.4,19.7-3.6,29.4-3.6c27,0,52.8,9,73.7,24.7
		C387.9,131.4,358.2,97,316.1,81C309.3,78.4,302.4,76.4,295.5,74.9"/>
	<path class="st4" d="M412.9,172.5c0,20,16,36.3,35.9,36.8c-0.6-23.9-7.4-47.2-19.4-67.4C419.5,148.4,412.9,159.7,412.9,172.5"/>
	<path class="st7" d="M160.3,298.4c0.5,3,1.1,5.9,1.8,8.9c12.4,50.4,57.6,84.2,107.3,84.2c8.6,0,17.3-1,26.1-3.1
		c-27.1-6.9-51.3-23-68.1-45.6c-3.3-1-6.5-2.1-9.8-3.3C194.4,330.6,175,316.3,160.3,298.4"/>
	<path class="st8" d="M172.9,226.9c-11.8,21.1-16.8,46.2-12.6,71.5c14.7,17.9,34.2,32.2,57.3,41.1c3.2,1.2,6.5,2.3,9.8,3.3
		c-8.1-10.8-14.4-23.1-18.7-36.7C188.6,284.3,176,256.4,172.9,226.9"/>
	<path class="st3" d="M251.8,171.6c-2.9,0.5-5.8,1.1-8.7,1.8c-31,7.6-55.7,27.7-70.1,53.5c3.1,29.5,15.7,57.4,35.8,79.3
		c-0.7-2.4-1.4-4.8-2-7.3C194.6,249.7,213.9,200.3,251.8,171.6"/>
	<path class="st9" d="M445.5,242.6c-1.4,6.4-3.3,12.8-5.8,19.1c-14.2,37.3-42.8,64.8-77,78.8c-14.8,23-38.1,40.7-66.7,47.8
		c-0.2,0-0.3,0.1-0.5,0.1c9.8,2.5,19.9,3.8,30.2,3.8c9.7,0,19.6-1.2,29.4-3.6c13.8-3.4,26.5-9,37.8-16.4
		C391.5,371.9,458,334.7,445.5,242.6"/>
	<path class="st10" d="M399.6,171.5c8.2,27.9,7.6,58.7-3.5,88c-4.2,11.1-9.7,21.3-16.3,30.6c-1.5,18.2-7.5,35.4-17.1,50.4
		c34.2-14,62.8-41.6,77-78.8c2.4-6.3,4.3-12.7,5.8-19.1c-0.2-0.8-0.4-1.6-0.6-2.4c-3.4-13.7-8.9-26.2-16.1-37.4
		c-6.1-4.2-10.9-10.2-13.5-17.2C410.5,180.4,405.2,175.7,399.6,171.5"/>
	<path class="st11" d="M325.9,146.8c-9.7,0-19.6,1.2-29.4,3.6c-16.7,4.1-31.8,11.5-44.7,21.2c6-1,11.9-1.4,17.8-1.4
		c49.7,0,94.9,33.8,107.4,84.2c3,12,3.8,24,2.9,35.7c6.5-9.3,12-19.5,16.3-30.6c11.2-29.3,11.7-60,3.5-88
		C378.7,155.8,352.9,146.8,325.9,146.8"/>
	<path class="st4" d="M415.3,185.5c2.7,7,7.4,13,13.5,17.3C424.8,196.6,420.3,190.8,415.3,185.5"/>
	<path class="st12" d="M362.7,340.5c-16.4,6.7-34.2,10.3-52.3,10.3c-9.5,0-19.1-1-28.7-3c-4.9,0.5-10,0.8-15,0.8
		c-13.1,0-26.4-1.9-39.4-5.8c16.8,22.6,41,38.7,68.1,45.6c0.2,0,0.3-0.1,0.5-0.1C324.7,381.2,348,363.6,362.7,340.5"/>
	<path class="st3" d="M208.7,306.1c4.2,13.5,10.6,25.8,18.7,36.6c13.1,3.9,26.3,5.8,39.4,5.8c5,0,10-0.3,15-0.8
		c-6.9-1.5-13.8-3.5-20.5-6.1C240.5,333.8,222.8,321.4,208.7,306.1"/>
	<path class="st13" d="M379.8,290.1c-23.1,32.7-59.1,53.4-98,57.7c9.6,2,19.2,3,28.7,3c18.1,0,35.8-3.6,52.3-10.3
		C372.3,325.5,378.3,308.2,379.8,290.1"/>
	<path class="st6" d="M269.6,170.1c-5.9,0-11.8,0.5-17.8,1.4c-37.9,28.7-57.2,78.1-45.1,127.2c0.6,2.5,1.3,4.9,2,7.3
		c14.1,15.3,31.8,27.6,52.5,35.5c6.8,2.6,13.7,4.6,20.5,6.1c38.9-4.3,75-25,98-57.7c1-11.7,0.1-23.7-2.9-35.7
		C364.6,203.9,319.4,170.1,269.6,170.1"/>
	<path class="st4" d="M353.2,164c0,9.1,7.4,16.5,16.4,16.5c9.1,0,16.4-7.4,16.4-16.5c0-9.1-7.4-16.4-16.4-16.4
		C360.6,147.5,353.2,154.9,353.2,164"/>
	<path class="st4" d="M414.2,145.1c6.1,0,11.1-4.9,11.1-11.1c0-6.1-5-11.1-11.1-11.1c-6.1,0-11.1,4.9-11.1,11.1
		C403.2,140.2,408.1,145.1,414.2,145.1"/>
	<path class="st4" d="M411.2,191.5c0-9.1-7.4-16.5-16.4-16.5c-9.1,0-16.5,7.4-16.5,16.5c0,9.1,7.4,16.4,16.5,16.4
		C403.9,207.9,411.2,200.6,411.2,191.5"/>
	<path class="st4" d="M249.8,256.1c-8.2,0-15,6.7-15,15c0,8.3,6.7,14.9,15,14.9c8.3,0,15-6.7,15-14.9
		C264.7,262.8,258,256.1,249.8,256.1"/>
	<path class="st4" d="M230,287.2c-7.4,0-13.4,6-13.4,13.5c0,7.4,6,13.5,13.4,13.5c7.4,0,13.5-6,13.5-13.5
		C243.5,293.2,237.5,287.2,230,287.2"/>
	<path class="st4" d="M219.9,258.5c0-6.8-5.5-12.3-12.3-12.3c-6.8,0-12.2,5.5-12.2,12.3c0,6.8,5.5,12.3,12.2,12.3
		C214.4,270.7,219.9,265.2,219.9,258.5"/>
	<path class="st4" d="M168.1,178.3c0,10.3,8.3,18.5,18.6,18.5c10.2,0,18.5-8.3,18.5-18.5c0-10.2-8.3-18.5-18.5-18.5
		C176.4,159.8,168.1,168.1,168.1,178.3"/>
	<path class="st4" d="M173.2,158.6c6.6,0,12-5.3,12-12c0-6.6-5.3-12-12-12c-6.6,0-12,5.4-12,12C161.2,153.2,166.6,158.6,173.2,158.6
		"/>
	<path class="st4" d="M163.3,203.1c0-4-3.2-7.2-7.2-7.2c-4,0-7.2,3.2-7.2,7.2c0,4,3.2,7.2,7.2,7.2
		C160.1,210.3,163.3,207.1,163.3,203.1"/>
	<path class="st4" d="M364.6,186.2c-1.1,0-2.1,0.9-2.1,2.1c0,1.1,0.9,2.1,2.1,2.1c1.2,0,2.1-0.9,2.1-2.1
		C366.7,187.2,365.7,186.2,364.6,186.2"/>
	<path class="st4" d="M373.6,185.5c0-2-1.6-3.6-3.6-3.6c-2,0-3.6,1.6-3.6,3.6c0,2,1.6,3.6,3.6,3.6
		C372,189.1,373.6,187.5,373.6,185.5"/>
	<path class="st4" d="M393,154.2c4.5,0,8.2-3.7,8.2-8.2c0-4.5-3.7-8.2-8.2-8.2c-4.5,0-8.2,3.7-8.2,8.2
		C384.8,150.6,388.5,154.2,393,154.2"/>
	<path class="st4" d="M378.9,147.9c2.6,0,4.6-2.1,4.6-4.6s-2.1-4.6-4.6-4.6c-2.5,0-4.6,2.1-4.6,4.6S376.4,147.9,378.9,147.9"/>
	<path class="st4" d="M408.4,164.3c0-4.4-3.6-7.9-7.9-7.9c-4.4,0-7.9,3.6-7.9,7.9c0,4.4,3.6,7.9,7.9,7.9
		C404.9,172.2,408.4,168.6,408.4,164.3"/>
	<path class="st4" d="M397,136.6c1.2,0,2.1-0.9,2.1-2.1c0-1.1-0.9-2.1-2.1-2.1c-1.1,0-2.1,0.9-2.1,2.1
		C394.9,135.7,395.8,136.6,397,136.6"/>
	<path class="st4" d="M404.8,174.9c0,1.6,1.3,3,3,3c1.6,0,3-1.3,3-3c0-1.6-1.3-3-3-3C406.2,171.9,404.8,173.2,404.8,174.9"/>
	<path class="st4" d="M400.6,140.7c1.1,0,2.1-0.9,2.1-2.1c0-1.2-0.9-2.1-2.1-2.1c-1.2,0-2.1,0.9-2.1,2.1
		C398.5,139.8,399.4,140.7,400.6,140.7"/>
	<path class="st4" d="M337.2,184.8c0-1.1-0.9-2.1-2.1-2.1c-1.2,0-2.1,0.9-2.1,2.1c0,1.1,0.9,2.1,2.1,2.1
		C336.3,186.9,337.2,186,337.2,184.8"/>
	<path class="st4" d="M336.7,174.4c-1.2,0-2.1,0.9-2.1,2.1c0,1.1,0.8,1.9,1.9,2l0,0.1c0,1.2,0.9,2.1,2.1,2.1l0.3-0.1
		c-0.1,0.2-0.1,0.5-0.1,0.7c0,1.2,0.9,2.1,2.1,2.1c0.2,0,0.3-0.1,0.4-0.1c0,0.7,0.4,1.3,1,1.7c-0.2,0.3-0.4,0.7-0.4,1.1
		c0,1.2,0.9,2.1,2.1,2.1c1.1,0,2.1-0.9,2.1-2.1c0-0.7-0.4-1.4-1-1.7c0.2-0.3,0.4-0.7,0.4-1.1c0-1.2-0.9-2.1-2.1-2.1
		c-0.2,0-0.3,0.1-0.5,0.1c0-1.1-0.9-2-2-2l-0.3,0.1c0.1-0.2,0.1-0.5,0.1-0.7c0-1.1-0.8-1.9-1.9-2l0-0.1
		C338.8,175.4,337.8,174.4,336.7,174.4"/>
	<path class="st4" d="M345.8,168.6c3.2,0,5.8-2.6,5.8-5.8c0-3.2-2.6-5.8-5.8-5.8c-3.2,0-5.8,2.6-5.8,5.8
		C339.9,166,342.5,168.6,345.8,168.6"/>
	<path class="st4" d="M360.5,185.8c-1.2,0-2.1,0.9-2.1,2.1c0,1.1,0.9,2.1,2.1,2.1c1.1,0,2.1-0.9,2.1-2.1
		C362.5,186.8,361.6,185.8,360.5,185.8"/>
	<path class="st4" d="M253.2,122.1c-1.6,0-3,1.3-3,3c0,1.7,1.3,3,3,3c1.6,0,3-1.3,3-3C256.2,123.4,254.8,122.1,253.2,122.1"/>
	<path class="st4" d="M339,155.4c2,0,3.6-1.6,3.6-3.6c0-2-1.6-3.6-3.6-3.6c-2,0-3.6,1.6-3.6,3.6C335.4,153.8,337.1,155.4,339,155.4"
		/>
	<path class="st4" d="M312.8,189.4c-1.1,0-2.1,0.9-2.1,2.1c0,1.2,0.9,2.1,2.1,2.1c1.2,0,2.1-0.9,2.1-2.1
		C314.9,190.4,314,189.4,312.8,189.4"/>
	<path class="st4" d="M313.3,166.2c0,1.1,0.9,2.1,2.1,2.1c1.2,0,2.1-0.9,2.1-2.1c0-1.2-0.9-2.1-2.1-2.1
		C314.3,164.1,313.3,165.1,313.3,166.2"/>
	<path class="st4" d="M326.7,168.2c0.5-0.1,1-0.4,1.3-0.9c0.3,2.9,2.8,5.2,5.8,5.2c3.2,0,5.8-2.6,5.8-5.8c0-3.2-2.6-5.8-5.8-5.8
		c-2.7,0-5,1.9-5.6,4.4c-0.3-0.7-1-1.2-1.8-1.2c-1.2,0-2.1,0.9-2.1,2.1c0,0.3,0.1,0.6,0.2,0.8c-0.3,0-0.5-0.1-0.8-0.1
		c-1.6,0-3.1,0.9-3.9,2.2c-0.4-0.6-1-1.1-1.8-1.1c-1.1,0-2.1,0.9-2.1,2.1c0,1.2,0.9,2.1,2.1,2.1c0.4,0,0.8-0.1,1.1-0.4
		c0.2,2.4,2.2,4.3,4.6,4.3c2.5,0,4.6-2.1,4.6-4.6C328.2,170.2,327.7,169.1,326.7,168.2"/>
	<path class="st4" d="M316.8,163.1c0,2,1.6,3.6,3.6,3.6c2,0,3.6-1.6,3.6-3.6c0-2-1.6-3.6-3.6-3.6
		C318.4,159.5,316.8,161.1,316.8,163.1"/>
	<path class="st4" d="M321.7,176.4c-1.6,0-3,1.3-3,3l0,0.2c-1.1-1-2.5-1.7-4.1-1.7c-3.2,0-5.8,2.6-5.8,5.8c0,3.2,2.6,5.8,5.8,5.8
		c3.2,0,5.8-2.6,5.8-5.8c0-0.6-0.1-1.2-0.3-1.8c0.4,0.3,1,0.4,1.5,0.4c1.6,0,3-1.3,3-3C324.7,177.7,323.3,176.4,321.7,176.4"/>
	<path class="st4" d="M306.9,123.4c1.1,0,2.1-0.9,2.1-2.1c0-1.2-0.9-2.1-2.1-2.1c-1.1,0-2.1,0.9-2.1,2.1
		C304.8,122.5,305.7,123.4,306.9,123.4"/>
	<path class="st4" d="M264.8,124.6c0-2-1.6-3.6-3.6-3.6c-2,0-3.6,1.6-3.6,3.6c0,2,1.6,3.6,3.6,3.6
		C263.3,128.2,264.8,126.6,264.8,124.6"/>
	<path class="st4" d="M307.9,162.9c0,1.6,1.3,3,3,3c1.6,0,3-1.3,3-3c0-0.5-0.2-1-0.4-1.5c1-0.1,1.8-0.9,1.9-1.9
		c0.4,0.1,0.8,0.2,1.2,0.2c2,0,3.6-1.6,3.6-3.6c0-2-1.6-3.6-3.6-3.6c-2,0-3.6,1.6-3.6,3.6c0,0.4,0.1,0.8,0.2,1.1
		c-1.1,0.1-1.9,1-1.9,2.1c0,0.2,0.1,0.4,0.1,0.6c-0.2,0-0.3-0.1-0.5-0.1C309.3,159.9,307.9,161.3,307.9,162.9"/>
	<path class="st4" d="M356,145.3c2.5,0,4.6-2.1,4.6-4.6c0-2.5-2.1-4.6-4.6-4.6c-2.5,0-4.6,2.1-4.6,4.6
		C351.4,143.2,353.5,145.3,356,145.3"/>
	<path class="st4" d="M363.8,142.1c1.2,0,2.1-0.9,2.1-2.1c0-1.1-0.9-2.1-2.1-2.1c-1.1,0-2.1,0.9-2.1,2.1
		C361.8,141.2,362.7,142.1,363.8,142.1"/>
	<path class="st4" d="M354.6,147.7c0-2-1.6-3.6-3.6-3.6s-3.6,1.6-3.6,3.6c0,2,1.6,3.6,3.6,3.6S354.6,149.6,354.6,147.7"/>
	<path class="st4" d="M338.7,140.2c0.3,0,0.6-0.1,0.8-0.2c-0.1,0.4-0.2,0.8-0.2,1.2c0,1.2,0.5,2.3,1.3,3c-1.1,0.1-1.9,1-1.9,2
		c0,1.1,0.9,2.1,2.1,2.1c1.1,0,2.1-0.9,2.1-2.1c0-0.4-0.1-0.7-0.3-1c0.3,0.1,0.6,0.1,0.9,0.1c2.3,0,4.2-1.9,4.2-4.2
		c0-0.5-0.1-1-0.3-1.5c0.2,0.1,0.5,0.1,0.7,0.1c1.6,0,3-1.3,3-3c0-1.6-1.3-3-3-3c-1.6,0-3,1.3-3,3c0,0.2,0,0.4,0,0.5
		c-0.5-0.2-1.1-0.4-1.7-0.4c-1,0-2,0.4-2.8,1.1c0-1.1-0.9-2.1-2.1-2.1c-1.1,0-2.1,0.9-2.1,2.1C336.6,139.3,337.5,140.2,338.7,140.2"
		/>
	<path class="st4" d="M331.1,153.5c2,0,3.6-1.6,3.6-3.6c0-2-1.6-3.6-3.6-3.6c-2,0-3.6,1.6-3.6,3.6
		C327.5,151.9,329.1,153.5,331.1,153.5"/>
	<path class="st4" d="M330.2,173.1c-1.6,0-3,1.3-3,3c0,1.6,1.3,3,3,3c1.6,0,3-1.3,3-3C333.2,174.4,331.8,173.1,330.2,173.1"/>
	<path class="st4" d="M336.5,147.4c1.1,0,2.1-0.9,2.1-2.1c0-1.2-0.9-2.1-2.1-2.1c-1.1,0-2.1,0.9-2.1,2.1
		C334.4,146.4,335.4,147.4,336.5,147.4"/>
	<path class="st4" d="M333.4,154.6c-1.2,0-2.1,0.9-2.1,2.1c0,1.2,0.9,2.1,2.1,2.1c1.1,0,2.1-0.9,2.1-2.1
		C335.5,155.5,334.6,154.6,333.4,154.6"/>
	<path class="st4" d="M355.2,187.6c0-1.2-0.9-2.1-2.1-2.1c-1.2,0-2.1,0.9-2.1,2.1c0,1.1,0.9,2.1,2.1,2.1
		C354.2,189.7,355.2,188.8,355.2,187.6"/>
	<path class="st4" d="M430.4,137c2,0,3.6-1.6,3.6-3.6c0-2-1.6-3.6-3.6-3.6c-2,0-3.6,1.6-3.6,3.6C426.8,135.4,428.4,137,430.4,137"/>
	<path class="st4" d="M407.6,157.8c3.9,0,7-3.2,7-7c0-3.9-3.2-7-7-7c-3.9,0-7,3.2-7,7C400.6,154.7,403.8,157.8,407.6,157.8"/>
	<path class="st4" d="M360.8,180c0-1.6-1.3-3-3-3c-1.6,0-3,1.3-3,3c0,0.3,0,0.5,0.1,0.8c-0.4-0.9-1.2-1.5-2.2-1.6
		c1.5-1.1,2.4-2.8,2.4-4.7c0-3.2-2.6-5.8-5.8-5.8c-2.3,0-4.3,1.3-5.2,3.3c-0.3-1.3-1.5-2.2-2.9-2.2c-1.6,0-3,1.3-3,3
		c0,1.6,1.3,3,3,3c0.9,0,1.7-0.4,2.2-1c0.1,3.1,2.7,5.7,5.8,5.7c0.2,0,0.5,0,0.7-0.1c-0.4,0.5-0.7,1.2-0.7,1.9c0,1.7,1.3,3,3,3
		c1.6,0,3-1.3,3-3c0-0.3,0-0.5-0.1-0.8c0.5,1,1.5,1.7,2.7,1.7C359.5,182.9,360.8,181.6,360.8,180"/>
	<path class="st4" d="M443.5,237.5c-1.1,0-2.1,0.9-2.1,2.1c0,1.1,0.9,2.1,2.1,2.1c1.2,0,2.1-0.9,2.1-2.1
		C445.6,238.5,444.7,237.5,443.5,237.5"/>
	<path class="st4" d="M437.5,227.1c-2,0-3.6,1.6-3.6,3.6c0,1.6,1.1,3,2.6,3.4c-0.6,0.4-1,1-1,1.8c0,1.1,0.9,2.1,2.1,2.1
		c1.2,0,2.1-0.9,2.1-2.1c0-0.8-0.4-1.4-1.1-1.8c1.4-0.5,2.5-1.8,2.5-3.4C441.1,228.7,439.5,227.1,437.5,227.1"/>
	<path class="st4" d="M445.2,218.7c0-3.9-3.2-7-7-7c-3.9,0-7,3.2-7,7c0,3.9,3.2,7,7,7C442,225.7,445.2,222.6,445.2,218.7"/>
	<path class="st4" d="M420.7,201.9c0-3.2-2.6-5.8-5.8-5.8c-3.2,0-5.8,2.6-5.8,5.8c0,3.2,2.6,5.8,5.8,5.8
		C418,207.8,420.7,205.2,420.7,201.9"/>
	<path class="st4" d="M425.3,205.1c-3.9,0-7,3.2-7,7c0,3.9,3.2,7,7,7c3.9,0,7-3.2,7-7C432.3,208.2,429.2,205.1,425.3,205.1"/>
	<path class="st4" d="M251.7,121.8c1.6,0,3-1.3,3-3c0-1.6-1.3-3-3-3c-1.6,0-3,1.3-3,3C248.7,120.5,250.1,121.8,251.7,121.8"/>
	<path class="st4" d="M291,117.8c0-2-1.6-3.6-3.6-3.6c-2,0-3.6,1.6-3.6,3.6c0,2,1.6,3.6,3.6,3.6C289.4,121.3,291,119.7,291,117.8"/>
	<path class="st4" d="M290.4,131.8c-1.1,0-2.1,0.9-2.1,2.1c0,1.2,0.9,2.1,2.1,2.1c1.1,0,2.1-0.9,2.1-2.1
		C292.5,132.7,291.6,131.8,290.4,131.8"/>
	<path class="st4" d="M266.2,138.7c-2.5,0-4.6,2.1-4.6,4.6c0,2.6,2.1,4.6,4.6,4.6c2.5,0,4.6-2.1,4.6-4.6
		C270.8,140.8,268.8,138.7,266.2,138.7"/>
	<path class="st4" d="M248.1,287.5c-2,0-3.6,1.6-3.6,3.6c0,2,1.6,3.6,3.6,3.6c2,0,3.6-1.6,3.6-3.6
		C251.7,289.1,250.1,287.5,248.1,287.5"/>
	<path class="st4" d="M205.5,233.5c-3.2,0-5.8,2.6-5.8,5.8c0,3.2,2.6,5.8,5.8,5.8c3.2,0,5.8-2.6,5.8-5.8
		C211.3,236.1,208.7,233.5,205.5,233.5"/>
	<path class="st4" d="M205.9,128.9c1.1,0,2.1-0.9,2.1-2.1c0-1.2-0.9-2.1-2.1-2.1c-1.2,0-2.1,0.9-2.1,2.1
		C203.8,127.9,204.8,128.9,205.9,128.9"/>
	<path class="st4" d="M213.9,174.3c3.2,0,5.8-2.6,5.8-5.8c0-3.2-2.6-5.8-5.8-5.8c-3.2,0-5.8,2.6-5.8,5.8
		C208.1,171.7,210.7,174.3,213.9,174.3"/>
	<path class="st4" d="M214,141.1c2,0,3.6-1.6,3.6-3.6c0-2-1.6-3.6-3.6-3.6c-2,0-3.6,1.6-3.6,3.6C210.4,139.5,212.1,141.1,214,141.1"
		/>
	<path class="st4" d="M216.6,242.3c0,2.5,2.1,4.6,4.6,4.6c2.5,0,4.6-2.1,4.6-4.6c0-2.6-2.1-4.6-4.6-4.6
		C218.7,237.7,216.6,239.8,216.6,242.3"/>
	<path class="st4" d="M203,140.2c0,1.6,1.3,3,3,3c1.7,0,3-1.3,3-3c0-1.6-1.3-3-3-3C204.3,137.2,203,138.5,203,140.2"/>
	<path class="st4" d="M199.5,137.5c2.6,0,4.6-2.1,4.6-4.6c0-2.5-2.1-4.6-4.6-4.6c-2.5,0-4.6,2.1-4.6,4.6
		C194.9,135.4,197,137.5,199.5,137.5"/>
	<path class="st4" d="M190.3,139.9c-1.6,0-3,1.3-3,3c0,1.6,1.3,3,3,3c1.6,0,3-1.3,3-3C193.2,141.2,191.9,139.9,190.3,139.9"/>
	<path class="st4" d="M205.1,157.2c-2,0-3.6,1.6-3.6,3.6c0,2,1.6,3.6,3.6,3.6c2,0,3.6-1.6,3.6-3.6
		C208.6,158.9,207,157.2,205.1,157.2"/>
	<path class="st4" d="M193.8,147.1c-3.2,0-5.8,2.6-5.8,5.8c0,3.2,2.6,5.8,5.8,5.8c3.2,0,5.8-2.6,5.8-5.8
		C199.7,149.7,197.1,147.1,193.8,147.1"/>
	<path class="st4" d="M197,146c2,0,3.6-1.6,3.6-3.6c0-2-1.6-3.6-3.6-3.6c-2,0-3.6,1.6-3.6,3.6C193.4,144.4,195,146,197,146"/>
	<path class="st4" d="M231.1,264.8c0-2.5-2.1-4.6-4.6-4.6s-4.6,2.1-4.6,4.6c0,2.6,2.1,4.6,4.6,4.6S231.1,267.4,231.1,264.8"/>
	<path class="st4" d="M237,127c2,0,3.6-1.6,3.6-3.6c0-2-1.6-3.6-3.6-3.6c-2,0-3.6,1.6-3.6,3.6C233.5,125.4,235.1,127,237,127"/>
	<path class="st4" d="M189.2,132.4c2,0,3.6-1.6,3.6-3.6c0-2-1.6-3.6-3.6-3.6c-2,0-3.6,1.6-3.6,3.6
		C185.6,130.8,187.2,132.4,189.2,132.4"/>
	<path class="st4" d="M240.4,133.5c-2,0-3.6,1.6-3.6,3.6c0,2,1.6,3.6,3.6,3.6c2,0,3.6-1.6,3.6-3.6
		C243.9,135.1,242.3,133.5,240.4,133.5"/>
	<path class="st4" d="M246.8,137.1c-1.1,0-2.1,0.9-2.1,2.1c0,1.2,0.9,2.1,2.1,2.1c1.2,0,2.1-0.9,2.1-2.1
		C248.9,138,247.9,137.1,246.8,137.1"/>
	<path class="st4" d="M244.8,124.3c2,0,3.6-1.6,3.6-3.6c0-2-1.6-3.6-3.6-3.6c-2,0-3.6,1.6-3.6,3.6
		C241.2,122.7,242.9,124.3,244.8,124.3"/>
	<path class="st4" d="M236,135.1c1.6,0,3-1.3,3-3c0-1.6-1.3-3-3-3c-1.6,0-3,1.3-3,3C233,133.8,234.4,135.1,236,135.1"/>
	<path class="st4" d="M231.2,148c-6,0-10.9,4.9-10.9,10.9c0,6,4.9,10.9,10.9,10.9c6,0,10.9-4.9,10.9-10.9
		C242.1,152.9,237.2,148,231.2,148"/>
	<path class="st4" d="M231.2,243.7c-4.5,0-8.2,3.7-8.2,8.2c0,4.5,3.7,8.2,8.2,8.2c4.5,0,8.2-3.7,8.2-8.2
		C239.4,247.4,235.7,243.7,231.2,243.7"/>
	<path class="st4" d="M228.7,133.9c2,0,3.6-1.6,3.6-3.6c0-2-1.6-3.6-3.6-3.6c-2,0-3.6,1.6-3.6,3.6
		C225.1,132.3,226.7,133.9,228.7,133.9"/>
	<path class="st4" d="M235.3,144.8c1.7,0,3-1.3,3-3c0-1.6-1.3-3-3-3c-1.6,0-3,1.3-3,3C232.3,143.5,233.6,144.8,235.3,144.8"/>
	<path class="st4" d="M223.6,139.4c1.6,0,3-1.3,3-3c0-1.6-1.3-3-3-3c-1.6,0-3,1.3-3,3C220.6,138.1,222,139.4,223.6,139.4"/>
	<path class="st4" d="M233.2,278.8c-1.6,0-3,1.3-3,3c0,1.6,1.3,3,3,3c1.6,0,3-1.3,3-3C236.2,280.1,234.8,278.8,233.2,278.8"/>
	<path class="st4" d="M182,220c1.6,0,3-1.3,3-3c0-1.6-1.3-3-3-3c-1.6,0-3,1.3-3,3C179,218.7,180.4,220,182,220"/>
	<path class="st4" d="M184.9,225.9c-2,0-3.6,1.6-3.6,3.6c0,2,1.6,3.6,3.6,3.6c2,0,3.6-1.6,3.6-3.6
		C188.5,227.5,186.9,225.9,184.9,225.9"/>
	<path class="st4" d="M191.3,235.6c-1.6,0-3,1.3-3,3c0,1.6,1.3,3,3,3c1.6,0,3-1.3,3-3C194.3,236.9,193,235.6,191.3,235.6"/>
	<path class="st4" d="M167.6,191c-2.6,0-4.6,2.1-4.6,4.6c0,2.5,2.1,4.6,4.6,4.6c2.5,0,4.6-2.1,4.6-4.6
		C172.3,193.1,170.2,191,167.6,191"/>
	<path class="st4" d="M176.2,219.5c-2.5,0-4.6,2.1-4.6,4.6c0,2.5,2.1,4.6,4.6,4.6c2.6,0,4.6-2.1,4.6-4.6
		C180.8,221.6,178.7,219.5,176.2,219.5"/>
	<path class="st4" d="M204.6,271c-2.5,0-4.6,2.1-4.6,4.6c0,2.6,2.1,4.6,4.6,4.6c2.5,0,4.6-2.1,4.6-4.6
		C209.2,273.1,207.2,271,204.6,271"/>
	<path class="st4" d="M222,330.7c4.5,0,8.2-3.7,8.2-8.2c0-4.5-3.7-8.2-8.2-8.2c-4.5,0-8.2,3.7-8.2,8.2
		C213.7,327,217.4,330.7,222,330.7"/>
	<path class="st4" d="M227.5,278.2c0-4.5-3.7-8.2-8.2-8.2c-4.5,0-8.2,3.7-8.2,8.2c0,4.5,3.7,8.2,8.2,8.2
		C223.8,286.4,227.5,282.7,227.5,278.2"/>
	<path class="st4" d="M166,212.2c1.6,0,3-1.3,3-3c0-1.6-1.3-3-3-3c-1.6,0-3,1.3-3,3C163,210.9,164.4,212.2,166,212.2"/>
	<path class="st4" d="M226.6,338.3c0-3.2-2.6-5.8-5.8-5.8c-3.2,0-5.8,2.6-5.8,5.8c0,3.2,2.6,5.8,5.8,5.8
		C224,344.1,226.6,341.5,226.6,338.3"/>
	<path class="st4" d="M227.8,343.5c-2,0-3.6,1.6-3.6,3.6c0,2,1.6,3.6,3.6,3.6c2,0,3.6-1.6,3.6-3.6
		C231.4,345.1,229.8,343.5,227.8,343.5"/>
	<path class="st4" d="M163.2,170.4c2.5,0,4.6-2.1,4.6-4.6c0-2.5-2.1-4.6-4.6-4.6c-2.5,0-4.6,2.1-4.6,4.6
		C158.6,168.3,160.7,170.4,163.2,170.4"/>
	<path class="st4" d="M149.9,153.3c-3.2,0-5.8,2.6-5.8,5.8c0,3.2,2.6,5.8,5.8,5.8c3.2,0,5.8-2.6,5.8-5.8
		C155.7,156,153.1,153.3,149.9,153.3"/>
	<path class="st4" d="M163.7,216.8c0-2.5-2.1-4.6-4.6-4.6s-4.6,2.1-4.6,4.6c0,2.6,2.1,4.6,4.6,4.6S163.7,219.3,163.7,216.8"/>
	<path class="st4" d="M165.6,220c-2,0-3.6,1.6-3.6,3.6c0,2,1.6,3.6,3.6,3.6c2,0,3.6-1.6,3.6-3.6C169.2,221.6,167.6,220,165.6,220"/>
	<path class="st4" d="M163.6,181.9c0-6.8-5.5-12.3-12.3-12.3c-6.8,0-12.3,5.5-12.3,12.3c0,6.8,5.5,12.3,12.3,12.3
		C158.2,194.2,163.6,188.7,163.6,181.9"/>
	<path class="st4" d="M330.1,237c0,10.9-8.9,19.8-19.8,19.8c-10.9,0-19.8-8.9-19.8-19.8c0-10.9,8.9-19.8,19.8-19.8
		C321.3,217.2,330.1,226.1,330.1,237"/>
	<path class="st4" d="M400.8,307c0,1.3-1,2.3-2.3,2.3c-1.3,0-2.3-1-2.3-2.3c0-1.3,1-2.3,2.3-2.3C399.8,304.8,400.8,305.8,400.8,307"
		/>
	<path class="st4" d="M403.8,301.7c0,1.9-1.5,3.4-3.4,3.4c-1.9,0-3.4-1.5-3.4-3.4c0-1.9,1.5-3.4,3.4-3.4
		C402.3,298.3,403.8,299.8,403.8,301.7"/>
	<path class="st4" d="M405.7,297.2c0,1.1-0.9,1.9-1.9,1.9c-1.1,0-1.9-0.8-1.9-1.9c0-1,0.9-1.9,1.9-1.9
		C404.8,295.3,405.7,296.1,405.7,297.2"/>
	<path class="st4" d="M369.7,318.5c0,6-4.9,10.9-10.9,10.9c-6,0-10.9-4.9-10.9-10.9c0-6,4.9-10.9,10.9-10.9
		C364.9,307.6,369.7,312.5,369.7,318.5"/>
	<path class="st4" d="M353.6,300c0,3.6-2.9,6.5-6.5,6.5c-3.6,0-6.5-2.9-6.5-6.5c0-3.6,2.9-6.5,6.5-6.5
		C350.7,293.5,353.6,296.4,353.6,300"/>
	<path class="st4" d="M380.1,217.8c0,7.3-5.9,13.2-13.2,13.2c-7.3,0-13.2-5.9-13.2-13.2c0-7.3,5.9-13.2,13.2-13.2
		C374.2,204.6,380.1,210.5,380.1,217.8"/>
	<path class="st4" d="M330.4,207.5c0,4.4-3.5,7.9-7.9,7.9c-4.4,0-7.9-3.5-7.9-7.9c0-4.4,3.5-7.9,7.9-7.9
		C326.8,199.6,330.4,203.2,330.4,207.5"/>
	<path class="st4" d="M339.3,203c0,2-1.6,3.6-3.6,3.6c-2,0-3.6-1.6-3.6-3.6c0-2,1.6-3.6,3.6-3.6C337.7,199.4,339.3,201,339.3,203"/>
	<path class="st4" d="M341.9,210.4c0,1.4-1.1,2.6-2.6,2.6c-1.4,0-2.6-1.1-2.6-2.6c0-1.4,1.2-2.6,2.6-2.6
		C340.8,207.8,341.9,209,341.9,210.4"/>
	<path class="st4" d="M351.7,210c0,2.1-1.7,3.7-3.7,3.7c-2.1,0-3.7-1.7-3.7-3.7c0-2.1,1.7-3.7,3.7-3.7
		C350,206.3,351.7,208,351.7,210"/>
	<path class="st4" d="M357.7,205.6c0,1.1-0.9,2-2,2c-1.1,0-2-0.9-2-2c0-1.1,0.9-2,2-2C356.8,203.6,357.7,204.5,357.7,205.6"/>
	<path class="st4" d="M313.9,212c0,2.1-1.7,3.7-3.7,3.7c-2.1,0-3.7-1.7-3.7-3.7c0-2.1,1.7-3.7,3.7-3.7
		C312.2,208.2,313.9,209.9,313.9,212"/>
	<path class="st4" d="M408.6,247.3c0,1.9-1.5,3.4-3.4,3.4c-1.9,0-3.4-1.5-3.4-3.4c0-1.9,1.5-3.4,3.4-3.4
		C407.1,244,408.6,245.5,408.6,247.3"/>
	<path class="st4" d="M388.9,297.2c0,7.6-6.1,13.7-13.7,13.7c-7.6,0-13.7-6.1-13.7-13.7c0-7.6,6.1-13.7,13.7-13.7
		C382.7,283.5,388.9,289.7,388.9,297.2"/>
	<path class="st4" d="M360.5,238.9c0,7-5.7,12.7-12.7,12.7s-12.7-5.7-12.7-12.7c0-7,5.7-12.7,12.7-12.7S360.5,231.8,360.5,238.9"/>
	<path class="st4" d="M394.5,264.8c0,9.4-7.6,17-17,17c-9.4,0-16.9-7.6-16.9-17c0-9.4,7.6-17,16.9-17
		C386.9,247.9,394.5,255.5,394.5,264.8"/>
	<path class="st4" d="M403.1,254.7c0,2.6-2.1,4.8-4.8,4.8c-2.6,0-4.8-2.1-4.8-4.8c0-2.6,2.1-4.8,4.8-4.8
		C400.9,249.9,403.1,252,403.1,254.7"/>
	<path class="st4" d="M349.2,266.8c0,4.4-3.6,8-8,8c-4.4,0-8-3.6-8-8c0-4.4,3.6-8,8-8C345.6,258.7,349.2,262.3,349.2,266.8"/>
	<path class="st4" d="M341.2,221.3c0,3.4-2.8,6.2-6.2,6.2c-3.4,0-6.2-2.8-6.2-6.2c0-3.4,2.8-6.2,6.2-6.2
		C338.4,215.1,341.2,217.9,341.2,221.3"/>
	<path class="st4" d="M373.6,241.9c0,2.8-2.3,5.1-5.1,5.1c-2.8,0-5.1-2.3-5.1-5.1c0-2.8,2.3-5.1,5.1-5.1
		C371.3,236.8,373.6,239.1,373.6,241.9"/>
	<path class="st4" d="M391.6,245c0,1.8-1.5,3.3-3.3,3.3c-1.8,0-3.3-1.5-3.3-3.3c0-1.8,1.5-3.3,3.3-3.3
		C390.1,241.7,391.6,243.2,391.6,245"/>
	<path class="st4" d="M352.4,255.2c0,2.3,1.8,4.1,4.1,4.1c2.3,0,4.1-1.8,4.1-4.1c0-2.3-1.8-4.1-4.1-4.1
		C354.2,251.1,352.4,252.9,352.4,255.2"/>
	<path class="st4" d="M360.7,275.8c0,3.3-2.7,6-6,6c-3.3,0-6-2.7-6-6c0-3.3,2.7-6,6-6C358.1,269.8,360.7,272.5,360.7,275.8"/>
	<path class="st4" d="M362.1,288.8c0,2.9-2.4,5.3-5.3,5.3c-2.9,0-5.3-2.4-5.3-5.3c0-2.9,2.4-5.3,5.3-5.3
		C359.7,283.4,362.1,285.8,362.1,288.8"/>
	<path class="st4" d="M348.5,286.7c0,2-1.6,3.7-3.7,3.7c-2,0-3.7-1.6-3.7-3.7c0-2,1.6-3.7,3.7-3.7
		C346.9,283,348.5,284.6,348.5,286.7"/>
	<path class="st4" d="M360.1,300.1c0,1.7-1.3,3-3,3c-1.7,0-3-1.3-3-3c0-1.7,1.4-3,3-3C358.7,297.1,360.1,298.5,360.1,300.1"/>
	<path class="st4" d="M391.5,284.2c0,1.6-1.3,2.9-2.9,2.9c-1.6,0-2.9-1.3-2.9-2.9c0-1.6,1.3-2.9,2.9-2.9
		C390.2,281.3,391.5,282.6,391.5,284.2"/>
	<path class="st4" d="M339.4,254.7c0,1.7-1.3,3-3,3c-1.7,0-3-1.3-3-3c0-1.7,1.3-3,3-3C338.1,251.6,339.4,253,339.4,254.7"/>
	<path class="st4" d="M323.2,259.6c0,2.3,1.9,4.2,4.2,4.2c2.3,0,4.2-1.9,4.2-4.2c0-2.3-1.9-4.2-4.2-4.2
		C325.1,255.3,323.2,257.2,323.2,259.6"/>
	<path class="st4" d="M389.8,232.3c0,3.6-2.9,6.5-6.5,6.5c-3.6,0-6.5-2.9-6.5-6.5c0-3.6,2.9-6.5,6.5-6.5
		C386.9,225.8,389.8,228.7,389.8,232.3"/>
</g>
</svg>
