<?xml version="1.0" encoding="UTF-8"?>
<svg version="1.1" xmlns="http://www.w3.org/2000/svg" width="48" height="48">
<path d="M0 0 C5.20763445 3.13117261 9.92248138 7.30168647 12.08984375 13.12890625 C13.63907646 20.49096253 13.95819409 29.02069305 9.96484375 35.62890625 C6.04394021 40.51092264 1.60634031 44.50176295 -4.4375 46.375 C-13.68888687 47.32556066 -20.8139615 46.84037267 -28.14453125 41.01953125 C-32.88531901 36.7170645 -35.14056851 32.45062373 -35.75390625 26.09765625 C-35.99901807 18.68895383 -35.44929619 13.64343155 -31.4375 7.375 C-30.7775 7.375 -30.1175 7.375 -29.4375 7.375 C-29.1075 6.385 -28.7775 5.395 -28.4375 4.375 C-27.7775 4.375 -27.1175 4.375 -26.4375 4.375 C-26.4375 3.715 -26.4375 3.055 -26.4375 2.375 C-18.37665199 -2.29071047 -8.74828856 -3.98868329 0 0 Z " fill="#DCEF00" transform="translate(35.4375,1.625)"/>
<path d="M0 0 C2.875 1.5625 2.875 1.5625 5 4 C5.5 7.625 5.5 7.625 5 11 C4.01 11.66 3.02 12.32 2 13 C0 10 0 10 0 6 C-1.32 6 -2.64 6 -4 6 C-4 7.32 -4 8.64 -4 10 C-3.38125 10.268125 -2.7625 10.53625 -2.125 10.8125 C0 12 0 12 2 15 C1.625 17.1875 1.625 17.1875 1 19 C-1.31 19 -3.62 19 -6 19 C-6.33 20.65 -6.66 22.3 -7 24 C-5.35 24.33 -3.7 24.66 -2 25 C-1.773125 24.360625 -1.54625 23.72125 -1.3125 23.0625 C0 21 0 21 2.58203125 20.37109375 C3.37996094 20.24863281 4.17789062 20.12617188 5 20 C6.00276773 21.47729175 7.00214454 22.95688577 8 24.4375 C8.556875 25.26121094 9.11375 26.08492187 9.6875 26.93359375 C11 29 11 29 11 30 C10.38511719 29.97679688 9.77023438 29.95359375 9.13671875 29.9296875 C8.32847656 29.91164063 7.52023438 29.89359375 6.6875 29.875 C5.88699219 29.85179688 5.08648438 29.82859375 4.26171875 29.8046875 C1.71611424 29.84182678 1.71611424 29.84182678 -1 32 C-5.09980652 32.63774768 -6.72292747 32.16728907 -10.3125 30 C-13.15188228 27.34089596 -14.07114422 24.92509234 -14.3203125 21.0703125 C-13.72544909 17.22546366 -11.48489146 14.90914123 -9 12 C-9.33 11.34 -9.66 10.68 -10 10 C-10.38932198 6.4182378 -10.43596718 4.63718279 -8.375 1.625 C-5.26965639 -0.49970879 -3.6986604 -0.60386292 0 0 Z " fill="#0C0D00" transform="translate(26,7)"/>
<path d="M0 0 C0.33 0.99 0.66 1.98 1 3 C1.66 3.33 2.32 3.66 3 4 C1.35 4.33 -0.3 4.66 -2 5 C-2.33 6.32 -2.66 7.64 -3 9 C-5.375 9.625 -5.375 9.625 -8 10 C-8.66 9.34 -9.32 8.68 -10 8 C-9.625 5.375 -9.625 5.375 -9 3 C-6.23735711 2.40267181 -3.83967231 2 -1 2 C-0.67 1.34 -0.34 0.68 0 0 Z " fill="#BCCC00" transform="translate(28,23)"/>
<path d="M0 0 C2.125 0.9375 2.125 0.9375 4 2 C3.67 3.32 3.34 4.64 3 6 C1.35 5.67 -0.3 5.34 -2 5 C-2 3.68 -2 2.36 -2 1 C-1.34 0.67 -0.68 0.34 0 0 Z " fill="#303400" transform="translate(33,20)"/>
<path d="M0 0 C1.32 0 2.64 0 4 0 C4.66 2.31 5.32 4.62 6 7 C5.01 7.495 5.01 7.495 4 8 C2 6.25 2 6.25 0 4 C0 2.68 0 1.36 0 0 Z " fill="#A6B400" transform="translate(22,13)"/>
</svg>
