<?xml version="1.0" standalone="no"?>
<!DOCTYPE svg PUBLIC "-//W3C//DTD SVG 20010904//EN"
 "http://www.w3.org/TR/2001/REC-SVG-20010904/DTD/svg10.dtd">
<svg version="1.0" xmlns="http://www.w3.org/2000/svg"
 width="16.000000pt" height="16.000000pt" viewBox="0 0 16.000000 16.000000"
 preserveAspectRatio="xMidYMid meet">

<g transform="translate(0.000000,16.000000) scale(0.100000,-0.100000)"
fill="#000000" stroke="none">
<path d="M61 126 c-6 -8 -11 -18 -10 -22 1 -5 -1 -17 -6 -27 -10 -24 11 -46
44 -45 24 1 28 5 28 29 0 16 -5 29 -10 29 -6 0 -7 -3 -4 -7 4 -3 -1 -12 -11
-19 -21 -16 -32 -17 -32 -4 0 6 7 10 15 10 16 0 31 43 20 59 -9 15 -20 14 -34
-3z"/>
</g>
</svg>
